<svg xmlns="http://www.w3.org/2000/svg" width="16" height="16.004" viewBox="0 0 16 16.004"><defs><style>.a{fill:#767676;}</style></defs><path class="a" d="M9.757,13.218a.525.525,0,1,1,.753-.732,1.93,1.93,0,0,0,1.41.487c.68,0,1.043-.257,1.043-.728a.65.65,0,0,0-.182-.5.874.874,0,0,0-.522-.206l-.712-.1a2,2,0,0,1-1.142-.489,1.556,1.556,0,0,1-.423-1.159A1.708,1.708,0,0,1,11.454,8.07l0-.61a.505.505,0,0,1,.5-.46.514.514,0,0,1,.5.472v.562a2.372,2.372,0,0,1,1.469.644.506.506,0,0,1,.169.375.512.512,0,0,1-.877.359h0A1.638,1.638,0,0,0,12,9.008c-.613,0-.91.34-.91.744a.571.571,0,0,0,.174.423,1.006,1.006,0,0,0,.546.233l.7.1a1.963,1.963,0,0,1,1.126.455,1.655,1.655,0,0,1,.455,1.25,1.762,1.762,0,0,1-1.637,1.738v.566h0a.5.5,0,0,1-.993,0h0v-.542a2.564,2.564,0,0,1-1.7-.751ZM20,18a2,2,0,0,1-2,2H6a2,2,0,0,1,0-4H7.106a7,7,0,1,1,9.788,0H18A2,2,0,0,1,20,18Zm-8-1a6,6,0,1,0-6-6,6,6,0,0,0,6,6Zm7,1a1,1,0,0,0-1-1H15.592a6.951,6.951,0,0,1-7.184,0H6a1,1,0,0,0,0,2H18a1,1,0,0,0,1-1Z" transform="translate(-4 -3.996)"/></svg>