<svg xmlns="http://www.w3.org/2000/svg" width="19.999" height="18.572" viewBox="0 0 19.999 18.572"><defs><style>.a{fill:#767676;}</style></defs><g transform="translate(-6.963 -962.397)"><path class="a" d="M22.765,980.966a.712.712,0,0,0,.508-.273.673.673,0,0,0,.126-.552l-1.249-5.911,4.581-4.069a.675.675,0,0,0,.2-.72.7.7,0,0,0-.593-.471l-6.165-.673L17.607,962.8a.715.715,0,0,0-1.289,0L13.756,968.3l-6.165.673a.7.7,0,0,0-.593.471.675.675,0,0,0,.2.72l4.581,4.069-1.249,5.911a.678.678,0,0,0,.277.694.723.723,0,0,0,.765.042l5.4-2.98,5.4,2.98A.723.723,0,0,0,22.765,980.966ZM21.7,978.933l-4.387-2.426a.724.724,0,0,0-.7,0l-4.387,2.426,1.015-4.808a.676.676,0,0,0-.217-.647l-3.729-3.31,5.018-.548a.706.706,0,0,0,.567-.4l2.083-4.469,2.083,4.469a.706.706,0,0,0,.567.4l5.018.548-3.729,3.31a.676.676,0,0,0-.217.647l1.015,4.808Z"/></g></svg>