<svg xmlns="http://www.w3.org/2000/svg" width="16" height="18.286" viewBox="0 0 16 18.286"><defs><style>.a{fill:#767676;}</style></defs><g transform="translate(-2)"><path class="a" d="M15.429,5.429V3.714A3.714,3.714,0,1,0,8,3.714V5.429a3.714,3.714,0,0,0,7.429,0Zm-1.143,0a2.571,2.571,0,0,1-5.143,0V3.714a2.571,2.571,0,0,1,5.143,0Z" transform="translate(-2.571)"/><path class="a" d="M7.143,19.143H8.286a.571.571,0,1,0,0-1.143H7.143A5.143,5.143,0,0,0,2,23.143v2.286A.571.571,0,0,0,2.571,26H8.286a.571.571,0,1,0,0-1.143H3.143V23.143a4,4,0,0,1,4-4Z" transform="translate(0 -7.714)"/><path class="a" d="M20,18a4,4,0,1,0,4,4,4,4,0,0,0-4-4Zm0,6.857A2.857,2.857,0,1,1,22.857,22,2.857,2.857,0,0,1,20,24.857Z" transform="translate(-6 -7.714)"/><path class="a" d="M23,22.714H21.857V21.571a.571.571,0,1,0-1.143,0v1.143H19.571a.571.571,0,1,0,0,1.143h1.143V25a.571.571,0,1,0,1.143,0V23.857H23a.571.571,0,1,0,0-1.143Z" transform="translate(-7.286 -9)"/></g></svg>