<svg xmlns="http://www.w3.org/2000/svg" width="18.572" height="18.572" viewBox="0 0 18.572 18.572"><defs><style>.a{fill:#767676;}</style></defs><path class="a" d="M11.286,2A9.287,9.287,0,0,0,4.653,17.786c.219.219.444.424.683.623a6.917,6.917,0,0,0,.75.564,9.257,9.257,0,0,0,10.4,0,6.917,6.917,0,0,0,.749-.564c.239-.2.464-.4.683-.623A9.287,9.287,0,0,0,11.286,2Zm0,17.245a7.881,7.881,0,0,1-5.266-2,5.309,5.309,0,0,1,10.533,0,7.881,7.881,0,0,1-5.266,2ZM9.3,9.3a1.99,1.99,0,1,1,1.99,1.99A1.99,1.99,0,0,1,9.3,9.3Zm8.357,6.765A6.647,6.647,0,0,0,13.574,11.7,3.316,3.316,0,1,0,9,11.7a6.647,6.647,0,0,0-4.079,4.364,7.959,7.959,0,1,1,12.735,0Z" transform="translate(-2 -2)"/></svg>