<svg xmlns="http://www.w3.org/2000/svg" width="18" height="16.06" viewBox="0 0 18 16.06"><defs><style>.a{fill:#767676;}</style></defs><g transform="translate(-5 -14.7)"><g transform="translate(5 14.7)"><path class="a" d="M21,15.7a.99.99,0,0,1,1,1v10a.99.99,0,0,1-1,1H16.06a.938.938,0,0,0-.7.3L14,29.34l-1.36-1.36a1.019,1.019,0,0,0-.7-.3H7a.99.99,0,0,1-1-1v-10a.99.99,0,0,1,1-1H21m0-.98H7a2.006,2.006,0,0,0-2,2v10a2.006,2.006,0,0,0,2,2h4.94L14,30.76l2.06-2.06H21a2.006,2.006,0,0,0,2-2v-10a1.993,1.993,0,0,0-2-2Z" transform="translate(-5 -14.7)"/></g><path class="a" d="M26,45a1,1,0,1,0,1,1,.99.99,0,0,0-1-1Z" transform="translate(-16 -24.24)"/><path class="a" d="M46,45a1,1,0,1,0,1,1,.99.99,0,0,0-1-1Z" transform="translate(-32 -24.24)"/><path class="a" d="M66,45a1,1,0,1,0,1,1,.99.99,0,0,0-1-1Z" transform="translate(-48 -24.24)"/></g></svg>