<svg xmlns="http://www.w3.org/2000/svg" width="18" height="13.543" viewBox="0 0 18 13.543"><defs><style>.a{fill:#767676;}</style></defs><g transform="translate(0 0)"><g transform="translate(0 0)"><path class="a" d="M17.978,7.126h0L17.2.727A.818.818,0,0,0,16.36,0H1.654A.818.818,0,0,0,.836.709L0,7.126H0v5.6a.818.818,0,0,0,.818.818h16.36A.818.818,0,0,0,18,12.724V7.271A.236.236,0,0,0,17.978,7.126Zm-2.327-5.49.6,4.762H13.506a.818.818,0,0,0-.691.382l-1.563,2.4H6.762L5.181,6.78A.8.8,0,0,0,4.508,6.4H1.818l.564-4.762Zm.709,10.325H1.636V8.053H4.054l1.581,2.4a.782.782,0,0,0,.691.364h5.362a.836.836,0,0,0,.691-.364l1.563-2.4H16.36Z" transform="translate(0 0)"/></g></g></svg>