<svg xmlns="http://www.w3.org/2000/svg" width="34" height="34" viewBox="0 0 34 34"><defs><style>.a{fill:#fff;stroke:#ff5a28;}.b{fill:#ff5a28;}.c{stroke:none;}.d{fill:none;}</style></defs><g transform="translate(-324.699 -23)"><g class="a" transform="translate(324.699 23)"><rect class="c" width="34" height="34" rx="3"/><rect class="d" x="0.5" y="0.5" width="33" height="33" rx="2.5"/></g><g transform="translate(331.747 31.423)"><path class="b" d="M11.515,967.362a1.515,1.515,0,0,0,0,3.029H28.679a1.515,1.515,0,0,0,0-3.029Zm0,7.32a1.515,1.515,0,0,0,0,3.029H28.679a1.515,1.515,0,0,0,0-3.029Zm0,7.32a1.514,1.514,0,1,0,0,3.029H28.679a1.514,1.514,0,1,0,0-3.029Z" transform="translate(-10 -967.362)"/></g></g></svg>