<svg xmlns="http://www.w3.org/2000/svg" width="16" height="16" viewBox="0 0 16 16"><defs><style>.a{fill:#ff5a28;}</style></defs><path class="a" d="M3.042,272.129a1.463,1.463,0,0,0-1.455,1.454v13.091a1.464,1.464,0,0,0,1.455,1.455H16.133a1.464,1.464,0,0,0,1.455-1.455V273.583a1.463,1.463,0,0,0-1.455-1.454Zm0,1.091H16.133a.351.351,0,0,1,.364.363v13.091a.351.351,0,0,1-.364.364H3.042a.351.351,0,0,1-.364-.364V273.583a.351.351,0,0,1,.364-.363Zm2.909,1.818a1.455,1.455,0,1,0,1.455,1.455A1.463,1.463,0,0,0,5.951,275.038Zm2.727.909a.546.546,0,1,0,0,1.091H14.5a.546.546,0,1,0,0-1.091Zm-2.727,2.728a1.455,1.455,0,1,0,1.455,1.455A1.463,1.463,0,0,0,5.951,278.675Zm2.727.909a.546.546,0,1,0,0,1.091H14.5a.546.546,0,1,0,0-1.091Zm-2.727,2.728a1.455,1.455,0,1,0,1.455,1.455A1.463,1.463,0,0,0,5.951,282.311Zm2.727.909a.546.546,0,1,0,0,1.091H14.5a.546.546,0,1,0,0-1.091Z" transform="translate(-1.587 -272.129)"/></svg>